<?xml version="1.0" encoding="iso-8859-1"?>
<!-- Uploaded to: SVG Repo, www.svgrepo.com, Generator: SVG Repo Mixer Tools -->
<!DOCTYPE svg PUBLIC "-//W3C//DTD SVG 1.1//EN" "http://www.w3.org/Graphics/SVG/1.1/DTD/svg11.dtd">
<svg fill="#000000" height="800px" width="800px" version="1.1" id="Capa_1" xmlns="http://www.w3.org/2000/svg" xmlns:xlink="http://www.w3.org/1999/xlink" 
	 viewBox="0 0 487.462 487.462" xml:space="preserve">
<g>
	<path d="M135.449,14.395"/>
</g>
<g>
	<path d="M351.933,15.409"/>
</g>
<path d="M458.013,53.1L328.553,0.337c-0.004-0.002-0.01-0.004-0.015-0.006l-0.041-0.017c-0.217-0.088-0.44-0.151-0.664-0.202
	c-0.058-0.013-0.114-0.024-0.173-0.035c-0.248-0.046-0.497-0.074-0.747-0.076C326.907,0.002,326.9,0,326.893,0H161.537
	c-0.141,0-0.273,0.028-0.411,0.041c-0.721-0.096-1.465-0.011-2.161,0.273L29.448,53.1C15.929,53.559,5.075,64.699,5.075,78.326
	v277.428c0,2.347,1.902,4.25,4.25,4.25h73.06c0.662,0,1.28-0.164,1.839-0.434v111.465c0,9.2,7.396,16.427,16.595,16.427H386.81
	c9.059,0,16.428-7.369,16.428-16.427V360.004h74.899c2.348,0,4.25-1.903,4.25-4.25V78.326
	C482.387,64.699,471.532,53.559,458.013,53.1z M329.821,10.033l34.69,14.138L243.177,266.864h-35.142l0.934-1.884
	c0.5-1.01,0.579-2.177,0.219-3.246c-0.36-1.068-1.131-1.949-2.141-2.449l-1.271-0.63L329.821,10.033z M146.912,289.922l0.67,0.938
	l-8.832,17.827H92.724v-33.322h59.126l-5.253,10.131C145.862,286.913,145.983,288.623,146.912,289.922z M134.539,317.187
	l-41.814,84.399v-84.399H134.539z M153.183,298.702l9.54,13.355l7.934,11.107l-48.234,97.354l-23.76-11.772L153.183,298.702z
	 M155.34,287.098l13.115-25.293l25.716,36.004l-0.082,0.158l-6.747,13.013c-0.001,0.003-0.002,0.005-0.003,0.007l-6.281,12.115
	L155.34,287.098z M191.982,280.12l-17.473-24.463l1.196-2.414l23.76,11.772L191.982,280.12z M198.107,308.687l4.809-9.274
	c0.118-0.228,0.206-0.466,0.28-0.707c0.021-0.07,0.04-0.139,0.058-0.209c0.051-0.199,0.087-0.398,0.108-0.6
	c0.004-0.046,0.015-0.092,0.018-0.138c0.018-0.238,0.01-0.477-0.014-0.714c-0.006-0.066-0.018-0.131-0.027-0.198
	c-0.027-0.188-0.067-0.374-0.119-0.557c-0.018-0.058-0.03-0.116-0.049-0.173c-0.076-0.227-0.168-0.448-0.283-0.662
	c-0.023-0.045-0.054-0.086-0.08-0.131c-0.066-0.114-0.129-0.229-0.207-0.337l-5.018-7.025l6.242-12.597h188.601v33.322H198.107z
	 M229.682,317.187l75.639,106.783l-21.638,15.327l-86.497-122.11H229.682z M244.821,161.359L186.937,45.343h115.767L244.821,161.359
	z M321.086,8.5l-14.142,28.343H182.697L168.555,8.5H321.086z M159.481,9.34l15.876,31.831l64.715,129.707l-20.783,41.656
	L124.763,23.432L159.481,9.34z M88.474,182.655c-2.348,0-4.25,1.903-4.25,4.25v165.034c-0.559-0.27-1.177-0.434-1.839-0.434h-68.81
	V78.326c0-9.231,7.511-16.741,16.742-16.741c0.55,0,1.095-0.107,1.604-0.314l84.948-34.621l96.768,193.589
	c0.278,0.555,0.661,1.023,1.113,1.392l-16.59,33.251L175.67,243.74c-1.01-0.501-2.18-0.58-3.245-0.219
	c-1.068,0.36-1.949,1.13-2.45,2.14l-1.873,3.78c-0.174-0.009-0.349-0.008-0.524,0.004c-1.477,0.105-2.791,0.97-3.472,2.283
	l-7.849,15.136H92.724v-79.959C92.724,184.558,90.822,182.655,88.474,182.655z M92.724,415.292l20.368,10.091l-20.368,40.824
	V415.292z M137.517,478.962h-36.865c-1.539,0-2.972-0.448-4.189-1.21l24.247-48.596l1.748,0.866c0.606,0.301,1.25,0.443,1.884,0.443
	c1.564,0,3.069-0.867,3.812-2.364l48.105-97.095l1.919,2.687c0.801,1.122,2.092,1.78,3.457,1.78c0.101,0,0.201-0.003,0.303-0.011
	c1.475-0.105,2.79-0.97,3.472-2.283l5.362-10.343l14.349,20.256c-0.081,0.126-0.172,0.243-0.241,0.381l-66.921,133.857
	C137.695,477.855,137.551,478.41,137.517,478.962z M394.738,471.035c0,4.371-3.557,7.927-7.928,7.927h-7.346
	c0.27-0.558,0.434-1.177,0.434-1.838V351.295c0-2.347-1.902-4.25-4.25-4.25c-2.348,0-4.25,1.903-4.25,4.25v125.829
	c0,0.662,0.164,1.28,0.434,1.838H146.645l64.017-128.047l68.542,96.763c0.651,0.92,1.642,1.543,2.753,1.733
	c0.237,0.04,0.477,0.06,0.715,0.06c0.874,0,1.733-0.27,2.457-0.782l28.574-20.241c1.915-1.357,2.368-4.009,1.011-5.925
	l-74.615-105.337h131.3v13.813c0,2.347,1.902,4.25,4.25,4.25c2.348,0,4.25-1.903,4.25-4.25v-13.813h14.84V471.035z M473.887,351.504
	h-70.649v-164.6c0-2.347-1.902-4.25-4.25-4.25c-2.348,0-4.25,1.903-4.25,4.25v79.959H252.681L372.405,27.388l83.135,33.882
	c0.51,0.208,1.055,0.314,1.604,0.314c9.232,0,16.743,7.51,16.743,16.741V351.504z"/>
</svg>