<?xml version="1.0" encoding="UTF-8"?>
<svg id="Layer_1" data-name="Layer 1" xmlns="http://www.w3.org/2000/svg" viewBox="0 0 499.48 555.71">
  <defs>
    <style>
      .cls-1 {
        fill: #fff;
      }
    </style>
  </defs>
  <path d="M403.21,295.31l-25.64,38.74c0,2.49,16.39,22.34,18.48,27.3,4.08,9.73-6.05,16.93-14.39,8.74-4.49-4.41-17.38-23.87-20.71-29.95-1.92-3.51-4.49-6.43-1.61-10.41l32.3-46.57c-.78-4.81-3.72-8.9-4.91-13.74-3.41-13.82.39-26.31,8.46-37.74l-.13-52.13-134.99-53.58-141.94,113.45c26.47,34.1,55.7,66.2,82.13,100.29,15.31,19.74,25.37,34.86,19.97,61.5-.78,3.83-4.51,11.96-3.73,14.42l42.34,59.06c.98,1.51,2.35,1.5,3.92,1.71,22.36,3.04,44.86-8.03,60.61,15.98,7.09,10.81,6.63,42.11,5.41,55.44-.33,3.63-.64,6.45-4.49,7.89H5.33c-3.86-1.43-4.16-4.26-4.49-7.89-1.37-14.98-2.19-45.65,6.84-57.39,16.21-21.08,38.01-11.76,60.8-14.66l37.96-52.84-66.05-135.87c-61.17-24.01-47.99-107.99,17.03-113.65L212.4,50.87c8.18-41.55,53.36-62.74,91.43-43.98,47.91,34.93,99.03,67.89,145.85,104.1,17.36,13.43,28.62,27.47,21.39,51.31-1.72,5.68-7.67,12.1-8.28,16.48-1.05,7.61-1.21,44.68.1,51.74.57,3.07,6.01,9.34,7.58,13.8,4.56,12.92,2.88,26.26-3.87,37.99l32.8,47.85.08,6.74-23.13,34.27c-6.61,6.81-16.78.29-14.4-8.72,1.6-6.06,19.4-24.82,18.76-29.27l-24.64-36.26-2.61-1.54c-15.93,11.2-33.99,8.52-50.25-.08h0ZM266.52,17.73c-45.2,6.13-51.96,71.21-9.5,87.63l167.21,68.15c28.76,5.4,43.49-27.06,21.11-44.69-48.53-31.1-94.64-73.25-143.27-103.3-11.58-7.15-21.78-9.66-35.55-7.8h0ZM212.7,73.67l-134.06,103.5,11.61,6.94c13.15,8.16,19.32,20.86,24.99,34.63l126.72-100.72-16.31-15.09c-6.45-8.51-12.08-18.38-12.95-29.26h0ZM445.93,188.4c-10.84,4.05-23.14,2.89-33.8-1.12v31.49c11.17-3.93,22.79-4.98,33.8,0v-30.37h0ZM50.19,192.06c-46.89,6.78-41.06,82.92,9.8,80.7,54.56-2.37,50.51-89.42-9.8-80.7h0ZM425.38,232.56c-37.86,4.84-24.35,66.53,14.22,51.31,28.52-11.25,17.27-55.34-14.22-51.31ZM60.6,289.64l56.13,117.72c35.45,62.08,120.95,3.9,74.52-51.89l-79.37-97.36c-1.28-1.48-1.09-1.2-2.22.08-2.44,2.77-4.17,7.04-6.8,10.08-11.18,12.91-25.18,19.72-42.26,21.37ZM89.89,476.33h148.73l-32.13-46.13c-2.02,0-6.88,6-9.19,7.7-25.12,18.42-54.65,16.58-79.69-.85l-27.72,39.29h0ZM311.86,539.32v-32.06c0-5.42-10.26-14.64-16.33-14.06l-264.28.5c-4.95.37-13.46,9.09-13.46,13.56v32.06h294.07,0Z"/>
  <path class="cls-1" d="M266.52,17.73c13.77-1.87,23.97.64,35.55,7.8,48.63,30.05,94.75,72.2,143.27,103.3,22.38,17.63,7.65,50.1-21.11,44.69l-167.21-68.15c-42.46-16.42-35.7-81.5,9.5-87.63h0ZM267.62,34.57c-31.27,5.3-25.21,59.03,13,51.22,31.65-6.47,24.76-57.62-13-51.22Z"/>
  <path class="cls-1" d="M311.86,539.32H17.79v-32.06c0-4.47,8.51-13.19,13.46-13.56l264.28-.5c6.07-.58,16.33,8.64,16.33,14.06v32.06Z"/>
  <path class="cls-1" d="M60.6,289.64c17.08-1.65,31.08-8.46,42.26-21.37,2.63-3.04,4.36-7.32,6.8-10.08,1.13-1.28.93-1.56,2.22-.08l79.37,97.36c46.44,55.79-39.07,113.97-74.52,51.89l-56.13-117.72h0ZM153.84,361.91c-33.36,4.58-27.25,56.66,7.5,52.47,33.51-4.05,28.07-57.35-7.5-52.47Z"/>
  <path class="cls-1" d="M212.7,73.67c.87,10.88,6.5,20.75,12.95,29.26l16.31,15.09-126.72,100.72c-5.67-13.77-11.84-26.47-24.99-34.63l-11.61-6.94s134.06-103.5,134.06-103.5Z"/>
  <path class="cls-1" d="M89.89,476.33l27.72-39.29c25.04,17.44,54.57,19.27,79.69.85,2.31-1.69,7.17-7.7,9.19-7.7l32.13,46.13H89.89Z"/>
  <path class="cls-1" d="M50.19,192.06c60.3-8.71,64.36,78.33,9.8,80.7-50.85,2.21-56.69-73.93-9.8-80.7h0ZM54.71,205.55c-33.36,4.06-28.14,56.94,7.49,52.48,32.99-4.13,27.88-56.79-7.49-52.48Z"/>
  <path class="cls-1" d="M425.38,232.56c31.48-4.03,42.73,40.06,14.22,51.31-38.57,15.22-52.08-46.47-14.22-51.31Z"/>
  <path class="cls-1" d="M445.93,188.4v30.37c-11.02-4.98-22.63-3.93-33.8,0v-31.49c10.66,4.01,22.96,5.18,33.8,1.12h0Z"/>
  <path d="M267.62,34.57c37.76-6.4,44.65,44.75,13,51.22-38.21,7.81-44.28-45.92-13-51.22ZM269.84,51.41c-9.41,2.84-6.65,21.71,7.42,17.53,9.69-2.88,5.88-21.55-7.42-17.53Z"/>
  <path d="M153.84,361.91c35.58-4.88,41.01,48.42,7.5,52.47-34.75,4.2-40.86-47.89-7.5-52.47ZM151.09,381.09c-8.49,7.75,3.52,21.81,12.64,14.3,9.77-8.05-2.78-23.31-12.64-14.3Z"/>
  <path d="M54.71,205.55c35.37-4.31,40.48,48.35,7.49,52.48-35.63,4.46-40.85-48.42-7.49-52.48ZM56.95,222.33c-11.69,1.88-9.9,20.54,2.99,18.91,11.54-1.47,9.26-20.88-2.99-18.91Z"/>
  <path class="cls-1" d="M269.84,51.41c13.31-4.02,17.11,14.65,7.42,17.53-14.07,4.18-16.84-14.68-7.42-17.53Z"/>
  <path class="cls-1" d="M151.09,381.09c9.87-9,22.41,6.25,12.64,14.3-9.12,7.51-21.14-6.55-12.64-14.3Z"/>
  <path class="cls-1" d="M56.95,222.33c12.25-1.97,14.53,17.44,2.99,18.91-12.88,1.64-14.67-17.02-2.99-18.91Z"/>
</svg>